<?xml version="1.0" encoding="UTF-8" standalone="no"?>
<!DOCTYPE svg PUBLIC "-//W3C//DTD SVG 1.1//EN" "http://www.w3.org/Graphics/SVG/1.1/DTD/svg11.dtd">
<svg version="1.1" xmlns="http://www.w3.org/2000/svg" xmlns:xlink="http://www.w3.org/1999/xlink" preserveAspectRatio="xMidYMid meet" viewBox="-0.6753754641363798 -0.9997964462638707 891.3507509282726 726.5631477701004" width="887.35" height="722.56"><defs><path d="M249.51 37.05C213.31 37.05 183.98 66.39 183.98 102.58C183.98 138.77 213.31 168.11 249.51 168.11C285.7 168.11 315.04 138.77 315.04 102.58C315.04 66.39 285.7 37.05 249.51 37.05Z" id="g406KTR4ZF"></path><path d="M553.56 121.69L553.56 50.23L632.17 121.69L632.17 121.69L553.56 121.69Z" id="c2t1AQook"></path><path d="M641.35 119.35C641.35 119.35 641.35 119.35 641.35 119.35C641.35 447.14 641.35 629.24 641.35 665.66C641.35 665.66 641.35 665.66 641.35 665.66C404.09 665.66 272.28 665.66 245.92 665.66C245.92 665.66 245.92 665.66 245.92 665.66C245.92 337.87 245.92 155.77 245.92 119.35C245.92 119.35 245.92 119.35 245.92 119.35C483.18 119.35 614.99 119.35 641.35 119.35Z" id="cKV62pyh9"></path><path d="M331.89 157.65C331.89 157.65 331.89 157.65 331.89 157.65C331.89 216.47 331.89 249.15 331.89 255.68C331.89 255.68 331.89 255.68 331.89 255.68C303.98 255.68 288.47 255.68 285.37 255.68C285.37 255.68 285.37 255.68 285.37 255.68C285.37 196.86 285.37 164.19 285.37 157.65C285.37 157.65 285.37 157.65 285.37 157.65C313.28 157.65 328.79 157.65 331.89 157.65Z" id="ejOWM9sTg"></path><path d="M403.85 157.65C403.85 157.65 403.85 157.65 403.85 157.65C403.85 216.47 403.85 249.15 403.85 255.68C403.85 255.68 403.85 255.68 403.85 255.68C375.94 255.68 360.43 255.68 357.33 255.68C357.33 255.68 357.33 255.68 357.33 255.68C357.33 196.86 357.33 164.19 357.33 157.65C357.33 157.65 357.33 157.65 357.33 157.65C385.24 157.65 400.75 157.65 403.85 157.65Z" id="a9MmNsjXz"></path><path d="M325.76 296.59C325.76 296.59 325.76 296.59 325.76 296.59C325.76 355.41 325.76 388.09 325.76 394.62C325.76 394.62 325.76 394.62 325.76 394.62C297.85 394.62 282.34 394.62 279.24 394.62C279.24 394.62 279.24 394.62 279.24 394.62C279.24 335.8 279.24 303.13 279.24 296.59C279.24 296.59 279.24 296.59 279.24 296.59C307.15 296.59 322.66 296.59 325.76 296.59Z" id="afe6OrJNf"></path><path d="M403.85 296.59C403.85 296.59 403.85 296.59 403.85 296.59C403.85 355.41 403.85 388.09 403.85 394.62C403.85 394.62 403.85 394.62 403.85 394.62C375.94 394.62 360.43 394.62 357.33 394.62C357.33 394.62 357.33 394.62 357.33 394.62C357.33 335.8 357.33 303.13 357.33 296.59C357.33 296.59 357.33 296.59 357.33 296.59C385.24 296.59 400.75 296.59 403.85 296.59Z" id="boKVf9fqO"></path><path d="M325.76 425.15C325.76 425.15 325.76 425.15 325.76 425.15C325.76 483.97 325.76 516.64 325.76 523.18C325.76 523.18 325.76 523.18 325.76 523.18C297.85 523.18 282.34 523.18 279.24 523.18C279.24 523.18 279.24 523.18 279.24 523.18C279.24 464.36 279.24 431.69 279.24 425.15C279.24 425.15 279.24 425.15 279.24 425.15C307.15 425.15 322.66 425.15 325.76 425.15Z" id="c1JGNpYH4D"></path><path d="M402.1 423.4C402.1 423.4 402.1 423.4 402.1 423.4C402.1 482.22 402.1 514.89 402.1 521.43C402.1 521.43 402.1 521.43 402.1 521.43C374.18 521.43 358.68 521.43 355.58 521.43C355.58 521.43 355.58 521.43 355.58 521.43C355.58 462.61 355.58 429.93 355.58 423.4C355.58 423.4 355.58 423.4 355.58 423.4C383.49 423.4 399 423.4 402.1 423.4Z" id="hThTo4G80"></path><path d="M469.71 567.85C469.71 567.85 469.71 567.85 469.71 567.85C469.71 626.67 469.71 659.35 469.71 665.88C469.71 665.88 469.71 665.88 469.71 665.88C441.8 665.88 426.29 665.88 423.19 665.88C423.19 665.88 423.19 665.88 423.19 665.88C423.19 607.06 423.19 574.39 423.19 567.85C423.19 567.85 423.19 567.85 423.19 567.85C451.11 567.85 466.61 567.85 469.71 567.85Z" id="a8VvpD63O"></path><path d="M540 423.4C540 423.4 540 423.4 540 423.4C540 482.22 540 514.89 540 521.43C540 521.43 540 521.43 540 521.43C512.09 521.43 496.58 521.43 493.48 521.43C493.48 521.43 493.48 521.43 493.48 521.43C493.48 462.61 493.48 429.93 493.48 423.4C493.48 423.4 493.48 423.4 493.48 423.4C521.39 423.4 536.9 423.4 540 423.4Z" id="b182KA1ADO"></path><path d="M618.09 423.4C618.09 423.4 618.09 423.4 618.09 423.4C618.09 482.22 618.09 514.89 618.09 521.43C618.09 521.43 618.09 521.43 618.09 521.43C590.18 521.43 574.67 521.43 571.57 521.43C571.57 521.43 571.57 521.43 571.57 521.43C571.57 462.61 571.57 429.93 571.57 423.4C571.57 423.4 571.57 423.4 571.57 423.4C599.48 423.4 614.99 423.4 618.09 423.4Z" id="g4YMh8KGoO"></path><path d="M541.75 295.56C541.75 295.56 541.75 295.56 541.75 295.56C541.75 354.37 541.75 387.05 541.75 393.58C541.75 393.58 541.75 393.58 541.75 393.58C513.84 393.58 498.33 393.58 495.23 393.58C495.23 393.58 495.23 393.58 495.23 393.58C495.23 334.77 495.23 302.09 495.23 295.56C495.23 295.56 495.23 295.56 495.23 295.56C523.14 295.56 538.65 295.56 541.75 295.56Z" id="a3jVW55eT4"></path><path d="M619.84 295.56C619.84 295.56 619.84 295.56 619.84 295.56C619.84 354.37 619.84 387.05 619.84 393.58C619.84 393.58 619.84 393.58 619.84 393.58C591.93 393.58 576.42 393.58 573.32 393.58C573.32 393.58 573.32 393.58 573.32 393.58C573.32 334.77 573.32 302.09 573.32 295.56C573.32 295.56 573.32 295.56 573.32 295.56C601.23 295.56 616.74 295.56 619.84 295.56Z" id="a6cpkgENLK"></path><path d="M541.75 157.65C541.75 157.65 541.75 157.65 541.75 157.65C541.75 216.47 541.75 249.15 541.75 255.68C541.75 255.68 541.75 255.68 541.75 255.68C513.84 255.68 498.33 255.68 495.23 255.68C495.23 255.68 495.23 255.68 495.23 255.68C495.23 196.86 495.23 164.19 495.23 157.65C495.23 157.65 495.23 157.65 495.23 157.65C523.14 157.65 538.65 157.65 541.75 157.65Z" id="blOgheX8x"></path><path d="M619.84 157.65C619.84 157.65 619.84 157.65 619.84 157.65C619.84 216.47 619.84 249.15 619.84 255.68C619.84 255.68 619.84 255.68 619.84 255.68C591.93 255.68 576.42 255.68 573.32 255.68C573.32 255.68 573.32 255.68 573.32 255.68C573.32 196.86 573.32 164.19 573.32 157.65C573.32 157.65 573.32 157.65 573.32 157.65C601.23 157.65 616.74 157.65 619.84 157.65Z" id="d6o5j7zfl2"></path><path d="M641.35 245.62C641.35 245.62 641.35 245.62 641.35 245.62C641.35 254.59 641.35 259.58 641.35 260.57C641.35 260.57 641.35 260.57 641.35 260.57C404.09 260.57 272.28 260.57 245.92 260.57C245.92 260.57 245.92 260.57 245.92 260.57C245.92 251.6 245.92 246.62 245.92 245.62C245.92 245.62 245.92 245.62 245.92 245.62C483.18 245.62 614.99 245.62 641.35 245.62Z" id="cgUltmGwW"></path><path d="M641.35 361.92C641.35 361.92 641.35 361.92 641.35 361.92C641.35 366.91 641.35 369.68 641.35 370.23C641.35 370.23 641.35 370.23 641.35 370.23C404.09 370.23 272.28 370.23 245.92 370.23C245.92 370.23 245.92 370.23 245.92 370.23C245.92 365.25 245.92 362.48 245.92 361.92C245.92 361.92 245.92 361.92 245.92 361.92C483.18 361.92 614.99 361.92 641.35 361.92Z" id="f9f0A0Tfe"></path><path d="M641.35 335.34C641.35 335.34 641.35 335.34 641.35 335.34C641.35 340.33 641.35 343.09 641.35 343.65C641.35 343.65 641.35 343.65 641.35 343.65C404.09 343.65 272.28 343.65 245.92 343.65C245.92 343.65 245.92 343.65 245.92 343.65C245.92 338.66 245.92 335.89 245.92 335.34C245.92 335.34 245.92 335.34 245.92 335.34C483.18 335.34 614.99 335.34 641.35 335.34Z" id="akYDnaFvw"></path><path d="M284.96 529.73C284.96 529.73 284.96 529.73 284.96 529.73C279.98 529.73 277.21 529.73 276.66 529.73C276.66 529.73 276.66 529.73 276.66 529.73C276.66 489.86 276.66 467.71 276.66 463.27C276.66 463.27 276.66 463.27 276.66 463.27C281.64 463.27 284.41 463.27 284.96 463.27C284.96 463.27 284.96 463.27 284.96 463.27C284.96 503.15 284.96 525.3 284.96 529.73Z" id="e4EY8HuMhU"></path><path d="M331.48 529.73C331.48 529.73 331.48 529.73 331.48 529.73C326.5 529.73 323.73 529.73 323.18 529.73C323.18 529.73 323.18 529.73 323.18 529.73C323.18 489.86 323.18 467.71 323.18 463.27C323.18 463.27 323.18 463.27 323.18 463.27C328.16 463.27 330.93 463.27 331.48 463.27C331.48 463.27 331.48 463.27 331.48 463.27C331.48 503.15 331.48 525.3 331.48 529.73Z" id="a3bUjZoG8"></path><path d="M378.01 529.73C378.01 529.73 378.01 529.73 378.01 529.73C373.02 529.73 370.25 529.73 369.7 529.73C369.7 529.73 369.7 529.73 369.7 529.73C369.7 489.86 369.7 467.71 369.7 463.27C369.7 463.27 369.7 463.27 369.7 463.27C374.68 463.27 377.45 463.27 378.01 463.27C378.01 463.27 378.01 463.27 378.01 463.27C378.01 503.15 378.01 525.3 378.01 529.73Z" id="c1fPVS2OXR"></path><path d="M424.53 529.73C424.53 529.73 424.53 529.73 424.53 529.73C419.54 529.73 416.77 529.73 416.22 529.73C416.22 529.73 416.22 529.73 416.22 529.73C416.22 489.86 416.22 467.71 416.22 463.27C416.22 463.27 416.22 463.27 416.22 463.27C421.2 463.27 423.97 463.27 424.53 463.27C424.53 463.27 424.53 463.27 424.53 463.27C424.53 503.15 424.53 525.3 424.53 529.73Z" id="diFV1PY0q"></path><path d="M471.05 529.73C471.05 529.73 471.05 529.73 471.05 529.73C466.06 529.73 463.3 529.73 462.74 529.73C462.74 529.73 462.74 529.73 462.74 529.73C462.74 489.86 462.74 467.71 462.74 463.27C462.74 463.27 462.74 463.27 462.74 463.27C467.73 463.27 470.49 463.27 471.05 463.27C471.05 463.27 471.05 463.27 471.05 463.27C471.05 503.15 471.05 525.3 471.05 529.73Z" id="fFQs2zLF"></path><path d="M517.57 529.73C517.57 529.73 517.57 529.73 517.57 529.73C512.59 529.73 509.82 529.73 509.26 529.73C509.26 529.73 509.26 529.73 509.26 529.73C509.26 489.86 509.26 467.71 509.26 463.27C509.26 463.27 509.26 463.27 509.26 463.27C514.25 463.27 517.02 463.27 517.57 463.27C517.57 463.27 517.57 463.27 517.57 463.27C517.57 503.15 517.57 525.3 517.57 529.73Z" id="cgAW7RLyV"></path><path d="M564.09 529.73C564.09 529.73 564.09 529.73 564.09 529.73C559.11 529.73 556.34 529.73 555.78 529.73C555.78 529.73 555.78 529.73 555.78 529.73C555.78 489.86 555.78 467.71 555.78 463.27C555.78 463.27 555.78 463.27 555.78 463.27C560.77 463.27 563.54 463.27 564.09 463.27C564.09 463.27 564.09 463.27 564.09 463.27C564.09 503.15 564.09 525.3 564.09 529.73Z" id="a1rA8B5eyH"></path><path d="M610.61 529.73C610.61 529.73 610.61 529.73 610.61 529.73C605.63 529.73 602.86 529.73 602.31 529.73C602.31 529.73 602.31 529.73 602.31 529.73C602.31 489.86 602.31 467.71 602.31 463.27C602.31 463.27 602.31 463.27 602.31 463.27C607.29 463.27 610.06 463.27 610.61 463.27C610.61 463.27 610.61 463.27 610.61 463.27C610.61 503.15 610.61 525.3 610.61 529.73Z" id="b1uRmznWqX"></path><path d="M285.79 403.46C285.79 403.46 285.79 403.46 285.79 403.46C280.81 403.46 278.04 403.46 277.49 403.46C277.49 403.46 277.49 403.46 277.49 403.46C277.49 363.59 277.49 341.43 277.49 337C277.49 337 277.49 337 277.49 337C282.47 337 285.24 337 285.79 337C285.79 337 285.79 337 285.79 337C285.79 376.88 285.79 399.03 285.79 403.46Z" id="cT3qUWXjS"></path><path d="M332.32 403.46C332.32 403.46 332.32 403.46 332.32 403.46C327.33 403.46 324.56 403.46 324.01 403.46C324.01 403.46 324.01 403.46 324.01 403.46C324.01 363.59 324.01 341.43 324.01 337C324.01 337 324.01 337 324.01 337C328.99 337 331.76 337 332.32 337C332.32 337 332.32 337 332.32 337C332.32 376.88 332.32 399.03 332.32 403.46Z" id="dapvl8PfI"></path><path d="M378.84 403.46C378.84 403.46 378.84 403.46 378.84 403.46C373.85 403.46 371.08 403.46 370.53 403.46C370.53 403.46 370.53 403.46 370.53 403.46C370.53 363.59 370.53 341.43 370.53 337C370.53 337 370.53 337 370.53 337C375.51 337 378.28 337 378.84 337C378.84 337 378.84 337 378.84 337C378.84 376.88 378.84 399.03 378.84 403.46Z" id="b1cAqFAi3F"></path><path d="M425.36 403.46C425.36 403.46 425.36 403.46 425.36 403.46C420.37 403.46 417.6 403.46 417.05 403.46C417.05 403.46 417.05 403.46 417.05 403.46C417.05 363.59 417.05 341.43 417.05 337C417.05 337 417.05 337 417.05 337C422.04 337 424.8 337 425.36 337C425.36 337 425.36 337 425.36 337C425.36 376.88 425.36 399.03 425.36 403.46Z" id="f1L4Yo53wR"></path><path d="M471.88 403.46C471.88 403.46 471.88 403.46 471.88 403.46C466.9 403.46 464.13 403.46 463.57 403.46C463.57 403.46 463.57 403.46 463.57 403.46C463.57 363.59 463.57 341.43 463.57 337C463.57 337 463.57 337 463.57 337C468.56 337 471.33 337 471.88 337C471.88 337 471.88 337 471.88 337C471.88 376.88 471.88 399.03 471.88 403.46Z" id="b4ftHFrEx"></path><path d="M518.4 403.46C518.4 403.46 518.4 403.46 518.4 403.46C513.42 403.46 510.65 403.46 510.09 403.46C510.09 403.46 510.09 403.46 510.09 403.46C510.09 363.59 510.09 341.43 510.09 337C510.09 337 510.09 337 510.09 337C515.08 337 517.85 337 518.4 337C518.4 337 518.4 337 518.4 337C518.4 376.88 518.4 399.03 518.4 403.46Z" id="g3ME1VAzbb"></path><path d="M564.92 403.46C564.92 403.46 564.92 403.46 564.92 403.46C559.94 403.46 557.17 403.46 556.61 403.46C556.61 403.46 556.61 403.46 556.61 403.46C556.61 363.59 556.61 341.43 556.61 337C556.61 337 556.61 337 556.61 337C561.6 337 564.37 337 564.92 337C564.92 337 564.92 337 564.92 337C564.92 376.88 564.92 399.03 564.92 403.46Z" id="d2FVBe5d3"></path><path d="M611.44 403.46C611.44 403.46 611.44 403.46 611.44 403.46C606.46 403.46 603.69 403.46 603.14 403.46C603.14 403.46 603.14 403.46 603.14 403.46C603.14 363.59 603.14 341.43 603.14 337C603.14 337 603.14 337 603.14 337C608.12 337 610.89 337 611.44 337C611.44 337 611.44 337 611.44 337C611.44 376.88 611.44 399.03 611.44 403.46Z" id="b1CHx9pNf"></path><path d="M285.79 255.59C285.79 255.59 285.79 255.59 285.79 255.59C280.81 255.59 278.04 255.59 277.49 255.59C277.49 255.59 277.49 255.59 277.49 255.59C277.49 215.71 277.49 193.56 277.49 189.13C277.49 189.13 277.49 189.13 277.49 189.13C282.47 189.13 285.24 189.13 285.79 189.13C285.79 189.13 285.79 189.13 285.79 189.13C285.79 229.01 285.79 251.16 285.79 255.59Z" id="aN94oCyTM"></path><path d="M332.32 255.59C332.32 255.59 332.32 255.59 332.32 255.59C327.33 255.59 324.56 255.59 324.01 255.59C324.01 255.59 324.01 255.59 324.01 255.59C324.01 215.71 324.01 193.56 324.01 189.13C324.01 189.13 324.01 189.13 324.01 189.13C328.99 189.13 331.76 189.13 332.32 189.13C332.32 189.13 332.32 189.13 332.32 189.13C332.32 229.01 332.32 251.16 332.32 255.59Z" id="aDDvXrCAr"></path><path d="M378.84 255.59C378.84 255.59 378.84 255.59 378.84 255.59C373.85 255.59 371.08 255.59 370.53 255.59C370.53 255.59 370.53 255.59 370.53 255.59C370.53 215.71 370.53 193.56 370.53 189.13C370.53 189.13 370.53 189.13 370.53 189.13C375.51 189.13 378.28 189.13 378.84 189.13C378.84 189.13 378.84 189.13 378.84 189.13C378.84 229.01 378.84 251.16 378.84 255.59Z" id="icFrjy8P9"></path><path d="M425.36 255.59C425.36 255.59 425.36 255.59 425.36 255.59C420.37 255.59 417.6 255.59 417.05 255.59C417.05 255.59 417.05 255.59 417.05 255.59C417.05 215.71 417.05 193.56 417.05 189.13C417.05 189.13 417.05 189.13 417.05 189.13C422.04 189.13 424.8 189.13 425.36 189.13C425.36 189.13 425.36 189.13 425.36 189.13C425.36 229.01 425.36 251.16 425.36 255.59Z" id="d28q8vqN3B"></path><path d="M471.88 255.59C471.88 255.59 471.88 255.59 471.88 255.59C466.9 255.59 464.13 255.59 463.57 255.59C463.57 255.59 463.57 255.59 463.57 255.59C463.57 215.71 463.57 193.56 463.57 189.13C463.57 189.13 463.57 189.13 463.57 189.13C468.56 189.13 471.33 189.13 471.88 189.13C471.88 189.13 471.88 189.13 471.88 189.13C471.88 229.01 471.88 251.16 471.88 255.59Z" id="a2d7Uqoeyc"></path><path d="M518.4 255.59C518.4 255.59 518.4 255.59 518.4 255.59C513.42 255.59 510.65 255.59 510.09 255.59C510.09 255.59 510.09 255.59 510.09 255.59C510.09 215.71 510.09 193.56 510.09 189.13C510.09 189.13 510.09 189.13 510.09 189.13C515.08 189.13 517.85 189.13 518.4 189.13C518.4 189.13 518.4 189.13 518.4 189.13C518.4 229.01 518.4 251.16 518.4 255.59Z" id="c6nJWH6D2"></path><path d="M564.92 255.59C564.92 255.59 564.92 255.59 564.92 255.59C559.94 255.59 557.17 255.59 556.61 255.59C556.61 255.59 556.61 255.59 556.61 255.59C556.61 215.71 556.61 193.56 556.61 189.13C556.61 189.13 556.61 189.13 556.61 189.13C561.6 189.13 564.37 189.13 564.92 189.13C564.92 189.13 564.92 189.13 564.92 189.13C564.92 229.01 564.92 251.16 564.92 255.59Z" id="afCMAOnZv"></path><path d="M611.44 255.59C611.44 255.59 611.44 255.59 611.44 255.59C606.46 255.59 603.69 255.59 603.14 255.59C603.14 255.59 603.14 255.59 603.14 255.59C603.14 215.71 603.14 193.56 603.14 189.13C603.14 189.13 603.14 189.13 603.14 189.13C608.12 189.13 610.89 189.13 611.44 189.13C611.44 189.13 611.44 189.13 611.44 189.13C611.44 229.01 611.44 251.16 611.44 255.59Z" id="d6qUHMnIU9"></path><path d="M641.35 212.39C641.35 212.39 641.35 212.39 641.35 212.39C641.35 217.38 641.35 220.15 641.35 220.7C641.35 220.7 641.35 220.7 641.35 220.7C404.09 220.7 272.28 220.7 245.92 220.7C245.92 220.7 245.92 220.7 245.92 220.7C245.92 215.71 245.92 212.95 245.92 212.39C245.92 212.39 245.92 212.39 245.92 212.39C483.18 212.39 614.99 212.39 641.35 212.39Z" id="a2iECFBK5A"></path><path d="M641.35 185.81C641.35 185.81 641.35 185.81 641.35 185.81C641.35 190.79 641.35 193.56 641.35 194.12C641.35 194.12 641.35 194.12 641.35 194.12C404.09 194.12 272.28 194.12 245.92 194.12C245.92 194.12 245.92 194.12 245.92 194.12C245.92 189.13 245.92 186.36 245.92 185.81C245.92 185.81 245.92 185.81 245.92 185.81C483.18 185.81 614.99 185.81 641.35 185.81Z" id="jcYp1zZab"></path><path d="M641.35 390.17C641.35 390.17 641.35 390.17 641.35 390.17C641.35 399.14 641.35 404.13 641.35 405.12C641.35 405.12 641.35 405.12 641.35 405.12C404.09 405.12 272.28 405.12 245.92 405.12C245.92 405.12 245.92 405.12 245.92 405.12C245.92 396.15 245.92 391.17 245.92 390.17C245.92 390.17 245.92 390.17 245.92 390.17C483.18 390.17 614.99 390.17 641.35 390.17Z" id="e3vsEcpiE0"></path><path d="M659.55 113.2C659.55 113.2 659.55 113.2 659.55 113.2C659.55 126.57 659.55 134 659.55 135.48C659.55 135.48 659.55 135.48 659.55 135.48C400.45 135.48 256.51 135.48 227.72 135.48C227.72 135.48 227.72 135.48 227.72 135.48C227.72 122.11 227.72 114.69 227.72 113.2C227.72 113.2 227.72 113.2 227.72 113.2C486.82 113.2 630.76 113.2 659.55 113.2Z" id="bcmUq9Z8K"></path><path d="M331.98 567.85L306.54 567.85L306.54 589.05L329.86 589.05L331.98 589.05L331.98 589.05L331.98 567.85Z" id="arjPac8xe"></path><path d="M306.54 606.01L306.54 627.2L331.98 627.2L331.98 606.01L329.86 606.01L329.86 606.01L306.54 606.01Z" id="a32CVnubex"></path><path d="M374.37 567.85C374.37 567.85 374.37 567.85 374.37 567.85C374.37 580.57 374.37 587.64 374.37 589.05C374.37 589.05 374.37 589.05 374.37 589.05C359.11 589.05 350.63 589.05 348.94 589.05C348.94 589.05 348.94 589.05 348.94 589.05C348.94 576.33 348.94 569.27 348.94 567.85C348.94 567.85 348.94 567.85 348.94 567.85C364.2 567.85 372.68 567.85 374.37 567.85Z" id="a2vQ2ZcwN"></path><path d="M374.37 606.01C374.37 606.01 374.37 606.01 374.37 606.01C374.37 618.73 374.37 625.79 374.37 627.2C374.37 627.2 374.37 627.2 374.37 627.2C359.11 627.2 350.63 627.2 348.94 627.2C348.94 627.2 348.94 627.2 348.94 627.2C348.94 614.49 348.94 607.42 348.94 606.01C348.94 606.01 348.94 606.01 348.94 606.01C364.2 606.01 372.68 606.01 374.37 606.01Z" id="b11pVeVJha"></path><path d="M539.44 567.85L514 567.85L514 589.05L537.32 589.05L539.44 589.05L539.44 589.05L539.44 567.85Z" id="b7S9Dtcrg"></path><path d="M514 606.01L514 627.2L539.44 627.2L539.44 606.01L537.32 606.01L537.32 606.01L514 606.01Z" id="ahComeQD"></path><path d="M581.83 567.85C581.83 567.85 581.83 567.85 581.83 567.85C581.83 580.57 581.83 587.64 581.83 589.05C581.83 589.05 581.83 589.05 581.83 589.05C566.57 589.05 558.09 589.05 556.4 589.05C556.4 589.05 556.4 589.05 556.4 589.05C556.4 576.33 556.4 569.27 556.4 567.85C556.4 567.85 556.4 567.85 556.4 567.85C571.66 567.85 580.14 567.85 581.83 567.85Z" id="cCKrtuicn"></path><path d="M581.83 606.01C581.83 606.01 581.83 606.01 581.83 606.01C581.83 618.73 581.83 625.79 581.83 627.2C581.83 627.2 581.83 627.2 581.83 627.2C566.57 627.2 558.09 627.2 556.4 627.2C556.4 627.2 556.4 627.2 556.4 627.2C556.4 614.49 556.4 607.42 556.4 606.01C556.4 606.01 556.4 606.01 556.4 606.01C571.66 606.01 580.14 606.01 581.83 606.01Z" id="a48fi7HxGb"></path><path d="M641.35 516.44C641.35 516.44 641.35 516.44 641.35 516.44C641.35 525.41 641.35 530.4 641.35 531.4C641.35 531.4 641.35 531.4 641.35 531.4C404.09 531.4 272.28 531.4 245.92 531.4C245.92 531.4 245.92 531.4 245.92 531.4C245.92 522.42 245.92 517.44 245.92 516.44C245.92 516.44 245.92 516.44 245.92 516.44C483.18 516.44 614.99 516.44 641.35 516.44Z" id="g382WGbdvG"></path><path d="M641.35 489.86C641.35 489.86 641.35 489.86 641.35 489.86C641.35 494.84 641.35 497.61 641.35 498.17C641.35 498.17 641.35 498.17 641.35 498.17C404.09 498.17 272.28 498.17 245.92 498.17C245.92 498.17 245.92 498.17 245.92 498.17C245.92 493.18 245.92 490.41 245.92 489.86C245.92 489.86 245.92 489.86 245.92 489.86C483.18 489.86 614.99 489.86 641.35 489.86Z" id="b4qV4MOGkR"></path><path d="M641.35 463.27C641.35 463.27 641.35 463.27 641.35 463.27C641.35 468.26 641.35 471.03 641.35 471.58C641.35 471.58 641.35 471.58 641.35 471.58C404.09 471.58 272.28 471.58 245.92 471.58C245.92 471.58 245.92 471.58 245.92 471.58C245.92 466.6 245.92 463.83 245.92 463.27C245.92 463.27 245.92 463.27 245.92 463.27C483.18 463.27 614.99 463.27 641.35 463.27Z" id="a5q6HWNTX5"></path><path d="M365.61 657.16C365.26 644.91 353.11 641.59 346.6 647.39C342.35 643.7 336.03 643.7 331.78 647.39C325.24 641.68 313.33 644.77 312.94 656.88C312.91 657.56 312.92 658.12 312.91 658.26C312.93 660.8 313.09 663.35 313.38 665.88C318.56 665.88 359.99 665.88 365.17 665.88C365.45 663.44 365.61 660.99 365.63 658.54C365.63 657.85 365.62 657.3 365.61 657.16Z" id="b14O5Qh3eD"></path><path d="M571.45 657.16C571.1 644.91 558.95 641.59 552.43 647.39C548.18 643.7 541.87 643.7 537.62 647.39C531.08 641.68 519.17 644.77 518.78 656.88C518.75 657.56 518.75 658.12 518.75 658.26C518.77 660.8 518.93 663.35 519.22 665.88C524.4 665.88 565.83 665.88 571.01 665.88C571.29 663.44 571.45 660.99 571.47 658.54C571.47 657.85 571.45 657.3 571.45 657.16Z" id="gA7QHQkcu"></path><path d="M847.51 666.7L850.18 510.24L852.85 510.24L855.52 666.7L855.52 666.7L847.51 666.7Z" id="aDGE0kIgc"></path><path d="M862.19 411.74C869.95 399.75 874.26 393.09 875.12 391.75C871.28 381.16 866.86 370.8 861.85 360.7C861.3 361.15 858.51 363.4 853.49 367.46C857.47 361.32 859.67 357.91 860.11 357.22C853.8 344.81 848.84 336.98 848.84 336.98C848.84 336.98 822.91 377.84 814.25 421.11C815.35 422.82 820.88 431.36 830.84 446.75C819.82 437.85 813.7 432.9 812.47 431.91C811.82 436.95 811.48 442.03 811.46 447.11C811.46 498.35 828.2 539.89 848.84 539.89C869.48 539.89 886.22 498.35 886.22 447.11C886.22 431.23 882.62 414.61 877.67 399.23C875.6 400.9 870.44 405.07 862.19 411.74Z" id="c3zJrUaDsW"></path><path d="M611.22 716.57C611.22 716.57 611.22 716.57 611.22 716.57C611.22 720.17 611.22 722.16 611.22 722.56C611.22 722.56 611.22 722.56 611.22 722.56C520.25 722.56 469.72 722.56 459.61 722.56C459.61 722.56 459.61 722.56 459.61 722.56C459.61 718.97 459.61 716.97 459.61 716.57C459.61 716.57 459.61 716.57 459.61 716.57C550.58 716.57 601.11 716.57 611.22 716.57Z" id="c2o84t19GW"></path><path d="M887.68 716.57C887.68 716.57 887.68 716.57 887.68 716.57C887.68 720.17 887.68 722.16 887.68 722.56C887.68 722.56 887.68 722.56 887.68 722.56C796.22 722.56 745.41 722.56 735.25 722.56C735.25 722.56 735.25 722.56 735.25 722.56C735.25 718.97 735.25 716.97 735.25 716.57C735.25 716.57 735.25 716.57 735.25 716.57C826.71 716.57 877.51 716.57 887.68 716.57Z" id="a33MmOzjSR"></path><path d="M335.78 716.57C335.78 716.57 335.78 716.57 335.78 716.57C335.78 720.17 335.78 722.16 335.78 722.56C335.78 722.56 335.78 722.56 335.78 722.56C244.7 722.56 194.1 722.56 183.98 722.56C183.98 722.56 183.98 722.56 183.98 722.56C183.98 718.97 183.98 716.97 183.98 716.57C183.98 716.57 183.98 716.57 183.98 716.57C275.06 716.57 325.66 716.57 335.78 716.57Z" id="b94QcSwYIH"></path><path d="M887.05 665.74C887.05 665.74 887.05 665.74 887.05 665.74C887.05 666.75 887.05 667.3 887.05 667.42C887.05 667.42 887.05 667.42 887.05 667.42C355.02 667.42 59.44 667.42 0.32 667.42C0.32 667.42 0.32 667.42 0.32 667.42C0.32 666.41 0.32 665.86 0.32 665.74C0.32 665.74 0.32 665.74 0.32 665.74C532.36 665.74 827.94 665.74 887.05 665.74Z" id="d1ojm3DBJQ"></path><path d="M410.07 1.11C407.53 2.5 404.47 2.51 401.93 1.14C401.82 1.08 401.73 1.03 401.71 1.02C399.17 -0.33 396.11 -0.32 393.58 1.05C393.57 1.06 393.48 1.1 393.47 1.11C390.93 2.5 387.87 2.51 385.33 1.14C385.21 1.08 385.12 1.03 385.1 1.02C382.59 -0.33 379.57 -0.34 377.05 1C373.26 3.04 368.14 6.53 368.16 10.47C368.16 10.63 368.17 10.78 368.19 10.94C368.63 15.03 381.97 16.07 389.3 14.14C394.76 15.39 400.44 15.39 405.9 14.14C413.2 16.1 426.81 14.98 427.2 10.84C427.22 10.68 427.23 10.53 427.23 10.37C427.2 6.43 422.04 2.98 418.23 0.97C415.7 -0.35 412.68 -0.32 410.18 1.05C410.18 1.05 410.08 1.1 410.07 1.11Z" id="a1iEnusQu2"></path><path d="M777.59 136.15C775.05 137.53 771.99 137.55 769.44 136.18C769.33 136.12 769.25 136.07 769.23 136.06C766.68 134.7 763.63 134.71 761.09 136.09C761.08 136.1 761 136.14 760.99 136.15C758.45 137.53 755.39 137.55 752.84 136.18C752.73 136.12 752.64 136.07 752.62 136.06C750.11 134.71 747.08 134.7 744.57 136.04C740.78 138.08 735.66 141.57 735.68 145.51C735.68 145.66 735.69 145.82 735.71 145.97C736.15 150.06 749.49 151.11 756.82 149.18C762.28 150.43 767.95 150.43 773.42 149.18C780.71 151.14 794.32 150.02 794.72 145.88C794.74 145.72 794.74 145.57 794.74 145.41C794.72 141.47 789.56 138.02 785.74 136.01C783.22 134.69 780.2 134.72 777.7 136.09C777.68 136.1 777.6 136.14 777.59 136.15Z" id="bb8wOaDwI"></path><path d="M134 143.69C131.47 145.07 128.4 145.08 125.86 143.71C125.75 143.66 125.66 143.61 125.64 143.6C123.1 142.24 120.04 142.25 117.51 143.63C117.5 143.63 117.41 143.68 117.4 143.69C114.87 145.07 111.8 145.08 109.26 143.71C109.15 143.65 109.06 143.61 109.04 143.6C106.52 142.24 103.5 142.24 100.98 143.58C97.19 145.62 92.07 149.11 92.1 153.05C92.1 153.2 92.11 153.36 92.12 153.51C92.56 157.6 105.9 158.64 113.23 156.72C118.69 157.96 124.37 157.96 129.83 156.72C137.13 158.68 150.74 157.55 151.14 153.42C151.15 153.26 151.16 153.11 151.16 152.95C151.14 149.01 145.97 145.56 142.16 143.55C139.63 142.23 136.62 142.26 134.12 143.62C134.09 143.64 134.01 143.68 134 143.69Z" id="f9YjJ5e9fg"></path></defs><g><g><use xlink:href="#g406KTR4ZF" opacity="1" fill="#ff6584" fill-opacity="1"></use><g><use xlink:href="#g406KTR4ZF" opacity="1" fill-opacity="0" stroke="#000000" stroke-width="1" stroke-opacity="0"></use></g></g><g><use xlink:href="#c2t1AQook" opacity="1" fill="#3f3d56" fill-opacity="1"></use><g><use xlink:href="#c2t1AQook" opacity="1" fill-opacity="0" stroke="#000000" stroke-width="1" stroke-opacity="0"></use></g></g><g><use xlink:href="#cKV62pyh9" opacity="1" fill="#e6e6e6" fill-opacity="1"></use><g><use xlink:href="#cKV62pyh9" opacity="1" fill-opacity="0" stroke="#000000" stroke-width="1" stroke-opacity="0"></use></g></g><g><use xlink:href="#ejOWM9sTg" opacity="1" fill="#ffffff" fill-opacity="1"></use><g><use xlink:href="#ejOWM9sTg" opacity="1" fill-opacity="0" stroke="#000000" stroke-width="1" stroke-opacity="0"></use></g></g><g><use xlink:href="#a9MmNsjXz" opacity="1" fill="#ffffff" fill-opacity="1"></use><g><use xlink:href="#a9MmNsjXz" opacity="1" fill-opacity="0" stroke="#000000" stroke-width="1" stroke-opacity="0"></use></g></g><g><use xlink:href="#afe6OrJNf" opacity="1" fill="#ffffff" fill-opacity="1"></use><g><use xlink:href="#afe6OrJNf" opacity="1" fill-opacity="0" stroke="#000000" stroke-width="1" stroke-opacity="0"></use></g></g><g><use xlink:href="#boKVf9fqO" opacity="1" fill="#ffffff" fill-opacity="1"></use><g><use xlink:href="#boKVf9fqO" opacity="1" fill-opacity="0" stroke="#000000" stroke-width="1" stroke-opacity="0"></use></g></g><g><use xlink:href="#c1JGNpYH4D" opacity="1" fill="#ffffff" fill-opacity="1"></use><g><use xlink:href="#c1JGNpYH4D" opacity="1" fill-opacity="0" stroke="#000000" stroke-width="1" stroke-opacity="0"></use></g></g><g><use xlink:href="#hThTo4G80" opacity="1" fill="#ffffff" fill-opacity="1"></use><g><use xlink:href="#hThTo4G80" opacity="1" fill-opacity="0" stroke="#000000" stroke-width="1" stroke-opacity="0"></use></g></g><g><use xlink:href="#a8VvpD63O" opacity="1" fill="#cccccc" fill-opacity="1"></use><g><use xlink:href="#a8VvpD63O" opacity="1" fill-opacity="0" stroke="#000000" stroke-width="1" stroke-opacity="0"></use></g></g><g><use xlink:href="#b182KA1ADO" opacity="1" fill="#ffffff" fill-opacity="1"></use><g><use xlink:href="#b182KA1ADO" opacity="1" fill-opacity="0" stroke="#000000" stroke-width="1" stroke-opacity="0"></use></g></g><g><use xlink:href="#g4YMh8KGoO" opacity="1" fill="#ffffff" fill-opacity="1"></use><g><use xlink:href="#g4YMh8KGoO" opacity="1" fill-opacity="0" stroke="#000000" stroke-width="1" stroke-opacity="0"></use></g></g><g><use xlink:href="#a3jVW55eT4" opacity="1" fill="#ffffff" fill-opacity="1"></use><g><use xlink:href="#a3jVW55eT4" opacity="1" fill-opacity="0" stroke="#000000" stroke-width="1" stroke-opacity="0"></use></g></g><g><use xlink:href="#a6cpkgENLK" opacity="1" fill="#ffffff" fill-opacity="1"></use><g><use xlink:href="#a6cpkgENLK" opacity="1" fill-opacity="0" stroke="#000000" stroke-width="1" stroke-opacity="0"></use></g></g><g><use xlink:href="#blOgheX8x" opacity="1" fill="#ffffff" fill-opacity="1"></use><g><use xlink:href="#blOgheX8x" opacity="1" fill-opacity="0" stroke="#000000" stroke-width="1" stroke-opacity="0"></use></g></g><g><use xlink:href="#d6o5j7zfl2" opacity="1" fill="#ffffff" fill-opacity="1"></use><g><use xlink:href="#d6o5j7zfl2" opacity="1" fill-opacity="0" stroke="#000000" stroke-width="1" stroke-opacity="0"></use></g></g><g><use xlink:href="#cgUltmGwW" opacity="1" fill="#3f3d56" fill-opacity="1"></use><g><use xlink:href="#cgUltmGwW" opacity="1" fill-opacity="0" stroke="#000000" stroke-width="1" stroke-opacity="0"></use></g></g><g><use xlink:href="#f9f0A0Tfe" opacity="1" fill="#3f3d56" fill-opacity="1"></use><g><use xlink:href="#f9f0A0Tfe" opacity="1" fill-opacity="0" stroke="#000000" stroke-width="1" stroke-opacity="0"></use></g></g><g><use xlink:href="#akYDnaFvw" opacity="1" fill="#3f3d56" fill-opacity="1"></use><g><use xlink:href="#akYDnaFvw" opacity="1" fill-opacity="0" stroke="#000000" stroke-width="1" stroke-opacity="0"></use></g></g><g><use xlink:href="#e4EY8HuMhU" opacity="1" fill="#3f3d56" fill-opacity="1"></use><g><use xlink:href="#e4EY8HuMhU" opacity="1" fill-opacity="0" stroke="#000000" stroke-width="1" stroke-opacity="0"></use></g></g><g><use xlink:href="#a3bUjZoG8" opacity="1" fill="#3f3d56" fill-opacity="1"></use><g><use xlink:href="#a3bUjZoG8" opacity="1" fill-opacity="0" stroke="#000000" stroke-width="1" stroke-opacity="0"></use></g></g><g><use xlink:href="#c1fPVS2OXR" opacity="1" fill="#3f3d56" fill-opacity="1"></use><g><use xlink:href="#c1fPVS2OXR" opacity="1" fill-opacity="0" stroke="#000000" stroke-width="1" stroke-opacity="0"></use></g></g><g><use xlink:href="#diFV1PY0q" opacity="1" fill="#3f3d56" fill-opacity="1"></use><g><use xlink:href="#diFV1PY0q" opacity="1" fill-opacity="0" stroke="#000000" stroke-width="1" stroke-opacity="0"></use></g></g><g><use xlink:href="#fFQs2zLF" opacity="1" fill="#3f3d56" fill-opacity="1"></use><g><use xlink:href="#fFQs2zLF" opacity="1" fill-opacity="0" stroke="#000000" stroke-width="1" stroke-opacity="0"></use></g></g><g><use xlink:href="#cgAW7RLyV" opacity="1" fill="#3f3d56" fill-opacity="1"></use><g><use xlink:href="#cgAW7RLyV" opacity="1" fill-opacity="0" stroke="#000000" stroke-width="1" stroke-opacity="0"></use></g></g><g><use xlink:href="#a1rA8B5eyH" opacity="1" fill="#3f3d56" fill-opacity="1"></use><g><use xlink:href="#a1rA8B5eyH" opacity="1" fill-opacity="0" stroke="#000000" stroke-width="1" stroke-opacity="0"></use></g></g><g><use xlink:href="#b1uRmznWqX" opacity="1" fill="#3f3d56" fill-opacity="1"></use><g><use xlink:href="#b1uRmznWqX" opacity="1" fill-opacity="0" stroke="#000000" stroke-width="1" stroke-opacity="0"></use></g></g><g><use xlink:href="#cT3qUWXjS" opacity="1" fill="#3f3d56" fill-opacity="1"></use><g><use xlink:href="#cT3qUWXjS" opacity="1" fill-opacity="0" stroke="#000000" stroke-width="1" stroke-opacity="0"></use></g></g><g><use xlink:href="#dapvl8PfI" opacity="1" fill="#3f3d56" fill-opacity="1"></use><g><use xlink:href="#dapvl8PfI" opacity="1" fill-opacity="0" stroke="#000000" stroke-width="1" stroke-opacity="0"></use></g></g><g><use xlink:href="#b1cAqFAi3F" opacity="1" fill="#3f3d56" fill-opacity="1"></use><g><use xlink:href="#b1cAqFAi3F" opacity="1" fill-opacity="0" stroke="#000000" stroke-width="1" stroke-opacity="0"></use></g></g><g><use xlink:href="#f1L4Yo53wR" opacity="1" fill="#3f3d56" fill-opacity="1"></use><g><use xlink:href="#f1L4Yo53wR" opacity="1" fill-opacity="0" stroke="#000000" stroke-width="1" stroke-opacity="0"></use></g></g><g><use xlink:href="#b4ftHFrEx" opacity="1" fill="#3f3d56" fill-opacity="1"></use><g><use xlink:href="#b4ftHFrEx" opacity="1" fill-opacity="0" stroke="#000000" stroke-width="1" stroke-opacity="0"></use></g></g><g><use xlink:href="#g3ME1VAzbb" opacity="1" fill="#3f3d56" fill-opacity="1"></use><g><use xlink:href="#g3ME1VAzbb" opacity="1" fill-opacity="0" stroke="#000000" stroke-width="1" stroke-opacity="0"></use></g></g><g><use xlink:href="#d2FVBe5d3" opacity="1" fill="#3f3d56" fill-opacity="1"></use><g><use xlink:href="#d2FVBe5d3" opacity="1" fill-opacity="0" stroke="#000000" stroke-width="1" stroke-opacity="0"></use></g></g><g><use xlink:href="#b1CHx9pNf" opacity="1" fill="#3f3d56" fill-opacity="1"></use><g><use xlink:href="#b1CHx9pNf" opacity="1" fill-opacity="0" stroke="#000000" stroke-width="1" stroke-opacity="0"></use></g></g><g><use xlink:href="#aN94oCyTM" opacity="1" fill="#3f3d56" fill-opacity="1"></use><g><use xlink:href="#aN94oCyTM" opacity="1" fill-opacity="0" stroke="#000000" stroke-width="1" stroke-opacity="0"></use></g></g><g><use xlink:href="#aDDvXrCAr" opacity="1" fill="#3f3d56" fill-opacity="1"></use><g><use xlink:href="#aDDvXrCAr" opacity="1" fill-opacity="0" stroke="#000000" stroke-width="1" stroke-opacity="0"></use></g></g><g><use xlink:href="#icFrjy8P9" opacity="1" fill="#3f3d56" fill-opacity="1"></use><g><use xlink:href="#icFrjy8P9" opacity="1" fill-opacity="0" stroke="#000000" stroke-width="1" stroke-opacity="0"></use></g></g><g><use xlink:href="#d28q8vqN3B" opacity="1" fill="#3f3d56" fill-opacity="1"></use><g><use xlink:href="#d28q8vqN3B" opacity="1" fill-opacity="0" stroke="#000000" stroke-width="1" stroke-opacity="0"></use></g></g><g><use xlink:href="#a2d7Uqoeyc" opacity="1" fill="#3f3d56" fill-opacity="1"></use><g><use xlink:href="#a2d7Uqoeyc" opacity="1" fill-opacity="0" stroke="#000000" stroke-width="1" stroke-opacity="0"></use></g></g><g><use xlink:href="#c6nJWH6D2" opacity="1" fill="#3f3d56" fill-opacity="1"></use><g><use xlink:href="#c6nJWH6D2" opacity="1" fill-opacity="0" stroke="#000000" stroke-width="1" stroke-opacity="0"></use></g></g><g><use xlink:href="#afCMAOnZv" opacity="1" fill="#3f3d56" fill-opacity="1"></use><g><use xlink:href="#afCMAOnZv" opacity="1" fill-opacity="0" stroke="#000000" stroke-width="1" stroke-opacity="0"></use></g></g><g><use xlink:href="#d6qUHMnIU9" opacity="1" fill="#3f3d56" fill-opacity="1"></use><g><use xlink:href="#d6qUHMnIU9" opacity="1" fill-opacity="0" stroke="#000000" stroke-width="1" stroke-opacity="0"></use></g></g><g><use xlink:href="#a2iECFBK5A" opacity="1" fill="#3f3d56" fill-opacity="1"></use><g><use xlink:href="#a2iECFBK5A" opacity="1" fill-opacity="0" stroke="#000000" stroke-width="1" stroke-opacity="0"></use></g></g><g><use xlink:href="#jcYp1zZab" opacity="1" fill="#3f3d56" fill-opacity="1"></use><g><use xlink:href="#jcYp1zZab" opacity="1" fill-opacity="0" stroke="#000000" stroke-width="1" stroke-opacity="0"></use></g></g><g><use xlink:href="#e3vsEcpiE0" opacity="1" fill="#3f3d56" fill-opacity="1"></use><g><use xlink:href="#e3vsEcpiE0" opacity="1" fill-opacity="0" stroke="#000000" stroke-width="1" stroke-opacity="0"></use></g></g><g><use xlink:href="#bcmUq9Z8K" opacity="1" fill="#3f3d56" fill-opacity="1"></use><g><use xlink:href="#bcmUq9Z8K" opacity="1" fill-opacity="0" stroke="#000000" stroke-width="1" stroke-opacity="0"></use></g></g><g><use xlink:href="#arjPac8xe" opacity="1" fill="#ffffff" fill-opacity="1"></use><g><use xlink:href="#arjPac8xe" opacity="1" fill-opacity="0" stroke="#000000" stroke-width="1" stroke-opacity="0"></use></g></g><g><use xlink:href="#a32CVnubex" opacity="1" fill="#ffffff" fill-opacity="1"></use><g><use xlink:href="#a32CVnubex" opacity="1" fill-opacity="0" stroke="#000000" stroke-width="1" stroke-opacity="0"></use></g></g><g><use xlink:href="#a2vQ2ZcwN" opacity="1" fill="#ffffff" fill-opacity="1"></use><g><use xlink:href="#a2vQ2ZcwN" opacity="1" fill-opacity="0" stroke="#000000" stroke-width="1" stroke-opacity="0"></use></g></g><g><use xlink:href="#b11pVeVJha" opacity="1" fill="#ffffff" fill-opacity="1"></use><g><use xlink:href="#b11pVeVJha" opacity="1" fill-opacity="0" stroke="#000000" stroke-width="1" stroke-opacity="0"></use></g></g><g><use xlink:href="#b7S9Dtcrg" opacity="1" fill="#ffffff" fill-opacity="1"></use><g><use xlink:href="#b7S9Dtcrg" opacity="1" fill-opacity="0" stroke="#000000" stroke-width="1" stroke-opacity="0"></use></g></g><g><use xlink:href="#ahComeQD" opacity="1" fill="#ffffff" fill-opacity="1"></use><g><use xlink:href="#ahComeQD" opacity="1" fill-opacity="0" stroke="#000000" stroke-width="1" stroke-opacity="0"></use></g></g><g><use xlink:href="#cCKrtuicn" opacity="1" fill="#ffffff" fill-opacity="1"></use><g><use xlink:href="#cCKrtuicn" opacity="1" fill-opacity="0" stroke="#000000" stroke-width="1" stroke-opacity="0"></use></g></g><g><use xlink:href="#a48fi7HxGb" opacity="1" fill="#ffffff" fill-opacity="1"></use><g><use xlink:href="#a48fi7HxGb" opacity="1" fill-opacity="0" stroke="#000000" stroke-width="1" stroke-opacity="0"></use></g></g><g><use xlink:href="#g382WGbdvG" opacity="1" fill="#3f3d56" fill-opacity="1"></use><g><use xlink:href="#g382WGbdvG" opacity="1" fill-opacity="0" stroke="#000000" stroke-width="1" stroke-opacity="0"></use></g></g><g><use xlink:href="#b4qV4MOGkR" opacity="1" fill="#3f3d56" fill-opacity="1"></use><g><use xlink:href="#b4qV4MOGkR" opacity="1" fill-opacity="0" stroke="#000000" stroke-width="1" stroke-opacity="0"></use></g></g><g><use xlink:href="#a5q6HWNTX5" opacity="1" fill="#3f3d56" fill-opacity="1"></use><g><use xlink:href="#a5q6HWNTX5" opacity="1" fill-opacity="0" stroke="#000000" stroke-width="1" stroke-opacity="0"></use></g></g><g><use xlink:href="#b14O5Qh3eD" opacity="1" fill="#0468bf" fill-opacity="1"></use><g><use xlink:href="#b14O5Qh3eD" opacity="1" fill-opacity="0" stroke="#000000" stroke-width="1" stroke-opacity="0"></use></g></g><g><use xlink:href="#gA7QHQkcu" opacity="1" fill="#0468bf" fill-opacity="1"></use><g><use xlink:href="#gA7QHQkcu" opacity="1" fill-opacity="0" stroke="#000000" stroke-width="1" stroke-opacity="0"></use></g></g><g><use xlink:href="#aDGE0kIgc" opacity="1" fill="#e6e6e6" fill-opacity="1"></use><g><use xlink:href="#aDGE0kIgc" opacity="1" fill-opacity="0" stroke="#000000" stroke-width="1" stroke-opacity="0"></use></g></g><g><use xlink:href="#c3zJrUaDsW" opacity="1" fill="#e6e6e6" fill-opacity="1"></use><g><use xlink:href="#c3zJrUaDsW" opacity="1" fill-opacity="0" stroke="#000000" stroke-width="1" stroke-opacity="0"></use></g></g><g><use xlink:href="#c2o84t19GW" opacity="1" fill="#e6e6e6" fill-opacity="1"></use><g><use xlink:href="#c2o84t19GW" opacity="1" fill-opacity="0" stroke="#000000" stroke-width="1" stroke-opacity="0"></use></g></g><g><use xlink:href="#a33MmOzjSR" opacity="1" fill="#e6e6e6" fill-opacity="1"></use><g><use xlink:href="#a33MmOzjSR" opacity="1" fill-opacity="0" stroke="#000000" stroke-width="1" stroke-opacity="0"></use></g></g><g><use xlink:href="#b94QcSwYIH" opacity="1" fill="#e6e6e6" fill-opacity="1"></use><g><use xlink:href="#b94QcSwYIH" opacity="1" fill-opacity="0" stroke="#000000" stroke-width="1" stroke-opacity="0"></use></g></g><g><use xlink:href="#d1ojm3DBJQ" opacity="1" fill="#3f3d56" fill-opacity="1"></use><g><use xlink:href="#d1ojm3DBJQ" opacity="1" fill-opacity="0" stroke="#000000" stroke-width="1" stroke-opacity="0"></use></g></g><g><use xlink:href="#a1iEnusQu2" opacity="1" fill="#e6e6e6" fill-opacity="1"></use><g><use xlink:href="#a1iEnusQu2" opacity="1" fill-opacity="0" stroke="#000000" stroke-width="1" stroke-opacity="0"></use></g></g><g><use xlink:href="#bb8wOaDwI" opacity="1" fill="#e6e6e6" fill-opacity="1"></use><g><use xlink:href="#bb8wOaDwI" opacity="1" fill-opacity="0" stroke="#000000" stroke-width="1" stroke-opacity="0"></use></g></g><g><use xlink:href="#f9YjJ5e9fg" opacity="1" fill="#e6e6e6" fill-opacity="1"></use><g><use xlink:href="#f9YjJ5e9fg" opacity="1" fill-opacity="0" stroke="#000000" stroke-width="1" stroke-opacity="0"></use></g></g></g></svg>